<svg xmlns="http://www.w3.org/2000/svg" xmlns:xlink="http://www.w3.org/1999/xlink" version="1.1" x="0px" y="0px" viewBox="0 0 100 125" enable-background="new 0 0 100 100" xml:space="preserve"><path d="M71,15v4.3H29V15c0-0.6,0.4-1,1-1h40C70.6,14,71,14.4,71,15z M29,20.3h42V23c0,0.6-0.4,1-1,1h-2v7.9c0,2.9-1.4,5.6-3.7,7.3  l-10.1,7.4c-1.591,1.364-1.597,3.431,0,4.8L64.3,58.8c2.3,1.7,3.7,4.4,3.7,7.3V74h2c0.6,0,1,0.4,1,1v2.7H29V75c0-0.6,0.4-1,1-1h2  v-7.9c0-2.899,1.4-5.6,3.7-7.3L45.8,51.4c1.497-1.124,1.716-3.33,0-4.8l-10.1-7.4c-2.3-1.7-3.7-4.4-3.7-7.3V24h-2c-0.6,0-1-0.4-1-1  V20.3z M66,24H34v7.9c0,2.2,1.1,4.3,2.9,5.6L47,45c2.596,1.797,2.731,5.951,0,8l-10.1,7.4C35.1,61.7,34,63.8,34,66v8h32v-7.9  c0-2.199-1.1-4.3-2.9-5.6L53,53c-2.591-1.795-2.736-5.948,0-8l10.1-7.4C64.9,36.3,66,34.2,66,32V24z M29,83c0,0.6,0.4,1,1,1h40  c0.6,0,1-0.4,1-1v-4.3H29V83z M48.8,44c0.4,0.4,0.7,0.9,0.7,1.5v15c0,0.6-0.3,1.1-0.7,1.5l-7.6,6.5c-1.4,1.2-0.6,3.5,1.3,3.5h15.1  c1.9,0,2.7-2.3,1.301-3.5L51.2,62c-0.4-0.4-0.7-0.9-0.7-1.5v-15c0-0.6,0.3-1.1,0.7-1.5l11.1-9.4c0.4-0.4,0.7-0.9,0.7-1.5V32  c0-1.1-0.9-2-2-2H39c-1.1,0-2,0.9-2,2v1.1c0,0.6,0.3,1.1,0.7,1.5L48.8,44z"/><text x="0" y="115" fill="#000000" font-size="5px" font-weight="bold" font-family="'Helvetica Neue', Helvetica, Arial-Unicode, Arial, Sans-serif">Created by Setyo Ari Wibowo</text><text x="0" y="120" fill="#000000" font-size="5px" font-weight="bold" font-family="'Helvetica Neue', Helvetica, Arial-Unicode, Arial, Sans-serif">from the Noun Project</text></svg>