<svg xmlns="http://www.w3.org/2000/svg" xmlns:xlink="http://www.w3.org/1999/xlink" width="36" height="36" viewBox="0 0 36 36" version="1.1"><g transform="translate(-878 278)"><g id="reset icon"><g id="Group"><g id="Vector"><use xlink:href="#path0_stroke" transform="translate(881 -275.483)" fill="#FFFFFF"/></g><g id="Group"><g id="Vector"><use xlink:href="#path1_fill" transform="translate(901.707 -276)" fill="#FFFFFF"/></g></g></g></g></g><defs><path id="path0_stroke" d="M27.86 27.58L29.43 26.04 26.34 22.92 24.78 24.46 27.86 27.58ZM26.82 8.66L27.96 10.53 31.71 8.26 30.57 6.38 26.82 8.66ZM24.78 24.46C19.61 29.56 11.22 29.56 6.06 24.46L2.97 27.58C9.84 34.38 20.99 34.38 27.86 27.58L24.78 24.46ZM6.06 24.46C0.91 19.37 0.91 11.11 6.06 6.02L2.97 2.9C-3.92 9.71-3.92 20.77 2.97 27.58L6.06 24.46ZM6.06 6.02C11.22 0.92 19.61 0.92 24.78 6.02L27.86 2.9C20.99-3.89 9.84-3.89 2.97 2.9L6.06 6.02ZM24.78 6.02C25.6 6.83 26.21 7.65 26.82 8.66L30.57 6.38C29.85 5.2 28.92 3.95 27.86 2.9L24.78 6.02Z"/><path id="path1_fill" d="M12.29 11.47L12.29 0.67C12.29 0.07 11.58-0.21 11.13 0.18L0.2 10.98C-0.24 11.42 0.09 12.13 0.7 12.13L11.63 12.13C12.02 12.13 12.29 11.8 12.29 11.47Z"/></defs></svg>
